PathFileType	4	(X/Y/Z)	C:\Users\Basilio\Documents\Thesis Gigler\squatting_fais\c3dfiles\058\SJ_pre3\markers_experimental.trc
DataRate	CameraRate	NumFrames	NumMarkers	Units	OrigDataRate	OrigDataStartFrame	OrigNumFrames
200.000000	200.000000	4	61	mm	200.000000	175	1400
Frame#	Time	FHD			LBHD			RBHD			C7			T10			CLAV			LSHO			LUUPA			LMUPA			LDUPA			LLEP			LMEP			LRAD			LUL			LRFIN			RSHO			RUPA1			RMUPA			RDUPA			RLEP			RMEP			RRAD			RUL			RUFIN			LASI			RASI			USACR			LSACR			RSACR			LTHI1			LTHI2			LTHI3			LTHI4			LLFC			LMFC			LTIB1			LTIB2			LTIB3			LTIB4			LLMAL			LMMAL			LHEE			LMT1			LMT2			LMT5			RTHI			RTHI2			RTHI3			RTHI4			RLFC			RMFC			RTIB1			RTIB2			RTIB3			RTIB4			RLMAL			RMMAL			RHEE			RMT1			RMT2			RMT5			
		X1	Y1	Z1	X2	Y2	Z2	X3	Y3	Z3	X4	Y4	Z4	X5	Y5	Z5	X6	Y6	Z6	X7	Y7	Z7	X8	Y8	Z8	X9	Y9	Z9	X10	Y10	Z10	X11	Y11	Z11	X12	Y12	Z12	X13	Y13	Z13	X14	Y14	Z14	X15	Y15	Z15	X16	Y16	Z16	X17	Y17	Z17	X18	Y18	Z18	X19	Y19	Z19	X20	Y20	Z20	X21	Y21	Z21	X22	Y22	Z22	X23	Y23	Z23	X24	Y24	Z24	X25	Y25	Z25	X26	Y26	Z26	X27	Y27	Z27	X28	Y28	Z28	X29	Y29	Z29	X30	Y30	Z30	X31	Y31	Z31	X32	Y32	Z32	X33	Y33	Z33	X34	Y34	Z34	X35	Y35	Z35	X36	Y36	Z36	X37	Y37	Z37	X38	Y38	Z38	X39	Y39	Z39	X40	Y40	Z40	X41	Y41	Z41	X42	Y42	Z42	X43	Y43	Z43	X44	Y44	Z44	X45	Y45	Z45	X46	Y46	Z46	X47	Y47	Z47	X48	Y48	Z48	X49	Y49	Z49	X50	Y50	Z50	X51	Y51	Z51	X52	Y52	Z52	X53	Y53	Z53	X54	Y54	Z54	X55	Y55	Z55	X56	Y56	Z56	X57	Y57	Z57	X58	Y58	Z58	X59	Y59	Z59	X60	Y60	Z60	X61	Y61	Z61	

176	0.875	-3.86421298980713	1641.425537109375	-820.165710449219	-144.1964263916016	1731.06005859375	-892.396667480469	9.7218074798584	1641.866088867188	-963.461853027344	-272.1511535644532	1582.501342773438	-920.2764892578127	-362.8840026855469	1267.095458984375	-912.6877441406252	-144.037094116211	1474.627685546875	-902.3870849609377	-131.0234527587891	1540.398803710938	-1069.890258789063	-278.5159912109376	1460.408569335938	-1241.40283203125	-257.1808776855469	1414.40087890625	-1248.81396484375	-308.4897460937501	1409.378051757813	-1279.906616210938	-353.4580993652344	1342.793701171875	-1313.03369140625	-411.6822204589845	1350.6201171875	-1264.757568359375	-355.4364318847657	1151.778442382813	-1114.791259765625	-282.2375488281251	1155.2958984375	-1103.864013671875	-333.8348693847657	1095.706665039063	-1169.73486328125	-172.3926849365235	1549.70947265625	-732.5481567382814	-333.5245056152344	1453.25439453125	-587.4884033203126	-308.9393920898438	1409.4150390625	-583.2548217773439	-357.8674011230469	1396.623901367188	-552.3973388671876	-398.0372924804689	1343.13232421875	-525.1122436523439	-455.8023681640626	1327.496337890625	-592.1661376953126	-312.6275634765626	1154.015991210938	-694.6913452148439	-296.1274719238282	1105.803344726563	-632.1027221679689	-243.6733856201172	1124.840087890625	-721.7532348632814	-223.2070922851563	1031.872436523438	-1035.554931640625	-214.4958648681641	1030.6103515625	-799.864685058594	-392.6363525390626	1149.281494140625	-899.296813964844	-406.6659240722657	1119.132934570313	-926.0359497070315	-401.9072265625001	1118.911254882813	-869.0883789062502	-286.6761779785157	771.7754516601565	-1138.216674804688	-257.8240966796876	691.5171508789064	-1143.598388671875	-211.4074401855469	689.9708251953126	-1121.130981445313	-286.4285583496094	639.5334472656251	-1134.896850585938	-282.6825866699219	540.8920898437501	-1135.861694335938	-251.8305206298829	519.9377441406251	-1013.968994140625	-236.2310333251954	399.6068420410157	-1120.188842773438	-298.4190673828126	376.5461120605469	-1173.240966796875	-259.1146850585938	361.6268615722657	-1155.645385742188	-267.5877380371094	277.6324768066407	-1138.8720703125	-357.5841674804688	92.31748962402345	-1166.5693359375	-322.4527893066407	97.81278228759768	-1078.332885742188	-415.1440734863282	51.26572036743165	-1111.9853515625	-188.472640991211	61.82992172241212	-1126.507568359375	-192.2427520751954	61.41540908813478	-1173.538208007813	-247.0209655761719	37.54868698120118	-1221.351440429688	-324.4135742187501	850.1839599609377	-703.6776123046876	-286.5153198242188	796.9187011718752	-691.8337402343751	-253.3250732421876	796.448181152344	-695.8132324218751	-313.5025329589844	716.7783203125001	-699.3684692382814	-305.6798706054688	540.1713867187501	-688.5408325195314	-277.5764770507813	504.3456420898439	-816.6630859375002	-268.5664672851563	322.4938964843751	-737.9550170898439	-306.3833923339844	259.6730957031251	-656.3009033203126	-274.2277832031251	246.1815032958985	-689.3273925781251	-287.4438781738282	196.3598022460938	-715.3878784179689	-348.9773254394532	94.68387603759767	-652.9888916015626	-319.5706176757813	105.5600280761719	-743.5612182617189	-412.9425354003907	49.62506103515626	-710.0578613281251	-193.4378814697266	57.58544540405275	-710.0366210937501	-191.0511474609375	61.04565429687501	-658.3489379882814	-236.7769165039063	26.61973190307618	-605.2340698242189	
177	0.88	-4.04847812652588	1641.664916992188	-821.8450927734377	-144.3648376464844	1731.15673828125	-894.2529296875002	9.689975738525392	1642.1318359375	-965.2400512695315	-272.0506896972657	1582.6884765625	-922.2786254882815	-362.9176635742188	1266.943603515625	-914.3355712890627	-143.8478546142578	1474.799194335938	-904.1084594726565	-131.1819152832032	1540.078247070313	-1071.630493164063	-278.3441162109376	1459.857543945313	-1243.229370117188	-257.0156555175782	1413.839111328125	-1250.45654296875	-308.5010681152344	1408.756469726563	-1281.638305664063	-353.3586120605469	1342.02978515625	-1314.599609375	-411.4549560546876	1350.107177734375	-1266.391479492188	-355.2936401367188	1151.353393554688	-1116.017456054688	-282.3158569335938	1154.995239257813	-1105.08544921875	-333.8893737792969	1095.234252929688	-1171.100463867188	-172.4906768798828	1550.200805664063	-734.3306884765626	-334.0920715332032	1453.582885742188	-589.5250854492189	-309.2715148925782	1410.247314453125	-584.7648315429689	-358.1345520019532	1397.101318359375	-554.0264892578126	-398.2752380371095	1343.478637695313	-526.7298583984376	-456.1143188476564	1327.73388671875	-593.7678833007814	-312.4633789062501	1154.163940429688	-695.9627685546876	-295.8192443847657	1106.244018554688	-633.4816284179689	-243.8489227294922	1125.118530273438	-722.7342529296876	-222.7844238281251	1031.876953125	-1036.666137695313	-214.238265991211	1031.055908203125	-800.9359130859377	-392.5656127929689	1149.433349609375	-900.598815917969	-406.5902099609376	1119.03857421875	-927.2222290039065	-401.9725646972657	1118.885498046875	-870.1574707031252	-286.6510009765626	771.6699829101565	-1138.621948242188	-257.5572509765626	691.3380737304689	-1143.760375976563	-211.1184539794922	689.8158569335939	-1121.302978515625	-286.3259277343751	639.2093505859376	-1135.22705078125	-282.7855834960938	540.6751098632814	-1136.074462890625	-252.340316772461	519.7781982421876	-1014.010131835938	-236.2795562744141	399.5354309082032	-1120.220947265625	-298.4807434082032	376.3427124023438	-1173.261108398438	-259.2048339843751	361.4896240234376	-1155.68994140625	-267.6437683105469	277.4887084960938	-1138.8798828125	-357.5899963378907	92.20534515380861	-1166.485717773438	-322.3418273925782	97.66383361816409	-1078.103759765625	-415.1785888671876	51.18469238281251	-1111.947998046875	-188.4629364013672	61.7759132385254	-1126.490966796875	-192.2877197265626	61.27309799194337	-1173.521606445313	-247.0230102539063	37.44810104370118	-1221.351928710938	-324.0875549316407	850.6668701171877	-704.5269775390626	-286.3266296386719	796.803161621094	-692.7290649414064	-253.2160186767579	796.3479003906252	-696.7639160156251	-313.5837097167969	716.8619995117189	-700.0283813476564	-305.8236083984376	540.3738403320314	-689.0624389648439	-277.8629455566407	504.3592529296876	-817.1583251953127	-268.7151184082032	322.6545715332032	-738.2800903320314	-306.5255126953126	259.9568176269532	-656.5324707031251	-274.2826232910157	246.2630767822266	-689.5411987304689	-287.3641357421876	196.6488342285157	-715.7283935546876	-348.8929748535157	94.73950195312501	-652.9356079101564	-319.5959777832032	105.6756286621094	-743.5431518554689	-412.992156982422	49.61552047729494	-710.0488281250001	-191.89599609375	57.6854591369629	-709.7000732421876	-191.0186004638672	61.15451431274415	-658.6184082031251	-236.4964141845704	26.99715232849122	-605.4058837890626	
178	0.885	-4.770761489868165	1641.612915039063	-825.0186157226565	-144.3294067382813	1731.077392578125	-896.2000122070315	9.658083915710451	1642.306518554688	-967.0350341796877	-272.1207275390626	1582.580932617188	-924.1611938476565	-363.1015625000001	1267.112548828125	-915.744079589844	-144.0659637451172	1474.819091796875	-905.905700683594	-131.4171447753907	1539.923583984375	-1073.66796875	-278.1431579589844	1459.1826171875	-1245.079223632813	-256.9066467285157	1413.167114257813	-1252.1748046875	-307.8604125976563	1408.07861328125	-1283.489379882813	-353.2676696777344	1341.43701171875	-1316.235717773438	-411.3925781250001	1349.326416015625	-1268.098510742188	-355.4449462890626	1150.910278320313	-1117.186767578125	-282.1501464843751	1154.587768554688	-1106.400756835938	-333.8278198242188	1094.784912109375	-1171.978759765625	-172.7478942871094	1550.329223632813	-736.1487426757814	-334.2565612792969	1454.10302734375	-591.2976684570314	-309.3200683593751	1410.491088867188	-586.6667480468751	-358.2931213378907	1397.729858398438	-556.0086059570314	-398.3264770507814	1344.08984375	-528.4166259765626	-456.1191711425782	1328.158935546875	-595.3694458007814	-312.6641540527344	1154.627075195313	-697.4507446289064	-295.8450927734376	1106.6416015625	-634.5352172851564	-243.9819641113282	1125.422485351563	-723.9409790039064	-222.5619506835938	1031.85400390625	-1037.670532226563	-213.8910827636719	1031.558471679688	-802.0819091796877	-392.4404296875001	1149.232543945313	-901.8177490234377	-406.4718627929689	1118.988647460938	-928.3389892578127	-401.8699035644532	1118.875732421875	-871.5454711914065	-286.3368835449219	771.3975830078127	-1139.093872070313	-257.2711791992188	691.1216430664064	-1144.056396484375	-210.9457244873047	689.5883789062501	-1121.43359375	-286.2189025878907	639.0487670898439	-1135.556396484375	-282.8015441894532	540.5852661132814	-1136.364990234375	-252.6564331054688	519.7160644531251	-1014.109680175781	-236.3553314208985	399.4319763183595	-1120.374755859375	-298.4259948730469	376.1611022949219	-1173.457641601563	-259.1507568359376	361.2632751464844	-1155.814453125	-267.8184814453126	277.3171081542969	-1138.962768554688	-357.5429077148438	92.05753326416017	-1166.452026367188	-322.3294982910157	97.47869873046878	-1078.079345703125	-415.666717529297	51.51599121093751	-1111.77783203125	-188.4538879394532	61.76049041748048	-1126.526123046875	-192.2824859619141	61.18956375122072	-1173.569213867188	-247.0562133789063	37.44592285156251	-1221.440673828125	-323.9726257324219	850.9311523437502	-705.2706909179689	-286.2165527343751	796.8352661132815	-693.6939697265626	-252.9057922363282	796.4256591796877	-697.7822265625001	-313.6965026855469	716.9317626953126	-700.7384033203126	-305.9477539062501	540.5693359375001	-689.6281127929689	-278.2020263671876	504.5120849609376	-817.7607421875002	-269.0874023437501	322.8016967773438	-738.6641235351564	-306.6207580566407	260.1382141113282	-656.7885742187501	-274.3945007324219	246.2749023437501	-689.7640991210939	-287.4787292480469	196.7555389404297	-715.9848632812501	-348.6459045410157	94.91531372070314	-652.9146118164064	-319.6166992187501	105.7444076538086	-743.5037841796876	-413.0257568359376	49.64182281494142	-709.9942626953126	-192.0017242431641	57.7660484313965	-709.8453369140626	-190.971908569336	61.26990509033205	-658.8408813476564	-236.6631164550782	27.03180694580079	-605.4581298828126	
179	0.89	-4.462320804595948	1642.111938476563	-825.3467407226565	-144.6428527832032	1731.198608398438	-898.263854980469	9.530227661132814	1642.53564453125	-968.8737792968752	-272.1881408691407	1582.662231445313	-926.1735839843752	-362.9004211425782	1267.226440429688	-917.1226806640627	-144.2953643798828	1474.8642578125	-907.5877685546877	-131.3432006835938	1539.696411132813	-1075.398315429688	-278.4376831054688	1458.386840820313	-1246.849975585938	-257.0501098632813	1412.529418945313	-1253.845947265625	-308.1077270507813	1407.294799804688	-1285.148681640625	-353.2626647949219	1340.686401367188	-1317.651489257813	-411.5541992187501	1348.705444335938	-1269.730712890625	-355.3072814941407	1150.845336914063	-1118.508666992188	-282.3086853027344	1154.272338867188	-1107.539306640625	-333.8523864746094	1094.332885742188	-1173.236572265625	-172.9777221679688	1550.537109375	-737.9474487304689	-334.3460998535157	1454.621704101563	-593.0960083007814	-309.3741455078126	1411.239624023438	-588.3172607421876	-358.5695190429688	1398.304443359375	-557.3546752929689	-398.3338317871095	1344.807373046875	-529.9677124023439	-456.0790100097657	1328.478515625	-597.0542602539064	-312.5969238281251	1154.851196289063	-698.5940551757814	-295.7149047851563	1107.1279296875	-635.9520263671876	-243.8541412353516	1125.931030273438	-725.3939208984376	-222.6438293457032	1031.78955078125	-1038.57861328125	-213.7166748046876	1031.583129882813	-803.2192382812502	-392.5315246582032	1149.286987304688	-903.0563964843752	-406.424530029297	1119.030151367188	-929.5852661132815	-401.8672485351564	1118.8701171875	-872.483093261719	-286.2631835937501	771.2827758789065	-1139.606567382813	-257.0756225585938	691.0094604492189	-1144.318969726563	-210.5744018554688	689.3969726562501	-1121.583251953125	-286.0464782714844	638.9044799804689	-1136.09130859375	-282.8809204101563	540.6085205078126	-1136.785766601563	-253.0118255615235	519.6627197265626	-1014.636962890625	-236.2263946533204	399.4436950683595	-1120.642700195313	-298.0338439941407	375.9939575195313	-1173.932495117188	-259.0417480468751	361.2845458984376	-1156.007202148438	-267.7216186523438	277.2326049804688	-1139.185302734375	-357.5581970214844	91.97987365722658	-1166.480346679688	-322.4864807128907	97.46794128417972	-1078.045776367188	-415.0754394531251	51.124324798584	-1112.03173828125	-188.4701690673828	61.73217010498048	-1126.6396484375	-192.3411254882813	61.10890579223634	-1173.684936523438	-246.9680938720704	37.28426361083985	-1221.596801757813	-323.4662780761719	851.1997680664065	-706.1888427734376	-285.8724975585938	797.5628662109377	-694.4445190429689	-252.7025146484376	796.455749511719	-698.8947753906251	-313.4598693847657	717.2141113281251	-701.4624633789064	-305.9431762695313	540.7523193359376	-690.1641845703126	-278.8583068847657	504.435760498047	-818.5378417968752	-269.2593383789063	322.9663085937501	-739.0144653320314	-306.8991394042969	260.2938842773438	-656.9692382812501	-274.5661010742188	246.4254913330079	-690.0571289062501	-287.5459289550782	197.3567504882813	-716.2470092773439	-348.5695800781251	95.0887908935547	-652.8673095703126	-319.6978454589844	105.872673034668	-743.4223632812501	-413.0550231933595	49.66445922851564	-710.0006713867189	-192.0274505615235	57.81962966918947	-710.0422973632814	-191.0389251708985	61.29587173461915	-659.1511230468751	-236.655502319336	27.19938659667969	-605.5537719726564	
